# xmcd
#
# Track frame offsets:
#	150
#	9720
#	23060
#	26420
#	36140
#	48510
#	58577
#	73122
#	83450
#	88254
#	105322
#	116930
#	132217
#	135430
#
# Disc length: 2019 seconds
#
# Revision: 1
# Processed by: cddbd v1.5.1PL0 Copyright (c) Steve Scherf et al.
# Submitted via: audiograbber 1.83.01
#
DISCID=b207e10e
DTITLE=RODRIGO DELAGE - VIOLA CAIPIRA
DYEAR=1900
DGENRE=Instrumental
TTITLE0=ENTARDECENDO NO SERTÃO
TTITLE1=O SERTÃO E O MAR
TTITLE2=INHUMA
TTITLE3=CURVA DO RIO
TTITLE4=O GAIOLA NA BARRA
TTITLE5=NA PONTA DO 
TTITLE6=CANTO DE VAQUEIROS
TTITLE7=TAMBORIL
TTITLE8=TOQUE DO SERTÃO VELHO
TTITLE9=RIACHO DAS PEDRAS
TTITLE10=INHUMA DO URUCUIA
TTITLE11=BARCA NOVA
TTITLE12=CERRADO
TTITLE13=CRÔA DO RIO
EXTD=
EXTT0=
EXTT1=
EXTT2=
EXTT3=
EXTT4=
EXTT5=
EXTT6=
EXTT7=
EXTT8=
EXTT9=
EXTT10=
EXTT11=
EXTT12=
EXTT13=
PLAYORDER=
